<?xml version="1.0" encoding="utf-8"?>
<!-- Generator: Adobe Illustrator 27.5.0, SVG Export Plug-In . SVG Version: 6.00 Build 0)  -->
<svg version="1.1" id="Layer_1" xmlns="http://www.w3.org/2000/svg" xmlns:xlink="http://www.w3.org/1999/xlink" x="0px" y="0px"
	 viewBox="0 0 213.73 357.73" style="enable-background:new 0 0 213.73 357.73;" xml:space="preserve">
<style type="text/css">
	.st0{fill:#FFFFFF;stroke:#FE6000;stroke-width:6;stroke-miterlimit:10;}
	.st1{fill:#FE6000;stroke:#FE6000;stroke-width:6;stroke-miterlimit:10;}
	.st2{fill:#343434;stroke:#343434;stroke-width:3;stroke-miterlimit:10;}
	.st3{fill:#FE6000;}
	.st4{font-family:'MyriadPro-Regular';}
	.st5{font-size:62.3828px;}
</style>
<ellipse class="st0" cx="105.19" cy="142.02" rx="95.07" ry="90.18"/>
<path class="st1" d="M93.49,69.47c-5.36,0-10.73,0-16.09,0l17.55-28.48L108.12,22l8.78,13.56l17.55,29.84c0,0.45,0,0.9,0,1.36
	c-4.88,0.45-9.75,0.9-14.63,1.36l-1.46,29.84v28.48v20.34v5.42h-16.09l-7.31-1.36v-42.04c0.49-13.11,0.97-26.22,1.46-39.33
	C95.44,69.47,94.47,69.47,93.49,69.47z"/>
<path class="st2" d="M96.42,211.86c-6.12-0.92-28.71-4.65-45.34-23.05c-9.22-10.2-12.52-20.37-14.63-27.12
	c-1.3-4.17-6.32-21.44-1.46-40.68c2.27-8.98,5.91-15.32,7.31-17.63c3.08-5.07,5.92-8.09,7.31-9.49c1.83-1.84,4.15-3.49,8.78-6.78
	c1.4-1,3.58-2.51,6.64-2.69c0.26-0.02,0.44-0.03,0.67-0.02c4.51,0.2,9.18,6.77,8.78,12.21c-0.23,3.13-2.01,3.96-5.85,9.49
	c0,0,0,0,0,0c-4.4,6.64-6.38,12-7.31,13.56c-3.31,5.54-3.84,11.43-4.39,17.63c-0.34,3.77-0.88,10.6,1.46,18.99
	c1.39,4.99,3.47,12.42,10.24,18.99c7.68,7.45,16.95,9.45,23.4,10.85c13.34,2.89,23.93,0.56,26.33,0
	c5.07-1.19,14.26-3.34,21.94-10.85c6.56-6.42,8.61-13.42,10.24-18.99c3.06-10.46,2.01-19,1.46-23.05
	c-0.64-4.79-1.55-11.59-5.85-18.99c-5.54-9.54-8.78-13.56-8.78-13.56c-2.66-3.3-4.68-5.27-4.39-8.14c0.44-4.23,5.53-6.64,5.85-6.78
	c4.62-2.11,9.21-0.42,10.24,0c3.48,1.4,5.1,3.8,8.78,9.49c6.37,9.88,9.56,14.81,10.24,16.27c3.79,8.16,5.09,14.9,5.85,18.99
	c1.16,6.2,1.33,10.92,1.46,14.92c0.36,10.85,0.54,16.28-1.46,23.05c-3.23,10.91-9.85,18.15-13.16,21.7
	c-0.97,1.04-5.61,5.93-13.16,10.85c-3.33,2.17-10.44,6.72-20.48,9.49C113.41,214.3,101.83,212.68,96.42,211.86z"/>
<text transform="matrix(1.0785 0 0 1 0 281.4043)" class="st3 st4 st5">Kolezza</text>
</svg>
