<?xml version="1.0" encoding="utf-8"?>
<!-- Generator: Adobe Illustrator 27.5.0, SVG Export Plug-In . SVG Version: 6.00 Build 0)  -->
<svg version="1.1" id="Layer_1" xmlns="http://www.w3.org/2000/svg" xmlns:xlink="http://www.w3.org/1999/xlink" x="0px" y="0px"
	 viewBox="0 0 3207 1794" style="enable-background:new 0 0 3207 1794;" xml:space="preserve">
<style type="text/css">
	.st0{fill:#FFFFFF;stroke:#FE6000;stroke-width:6;stroke-miterlimit:10;}
	.st1{fill:#FE6000;stroke:#FE6000;stroke-width:6;stroke-miterlimit:10;}
	.st2{fill:#343434;stroke:#343434;stroke-width:3;stroke-miterlimit:10;}
	.st3{font-family:'MyriadPro-Regular';}
	.st4{font-size:46px;}
	.st5{fill:#FE6000;}
</style>
<ellipse class="st0" cx="1464" cy="541.5" rx="65" ry="66.5"/>
<path class="st1" d="M1456,488c-3.67,0-7.33,0-11,0l12-21l9-14l6,10l12,22c0,0.33,0,0.67,0,1c-3.33,0.33-6.67,0.67-10,1l-1,22v21v15
	v4h-11l-5-1v-31c0.33-9.67,0.67-19.33,1-29C1457.33,488,1456.67,488,1456,488z"/>
<path class="st2" d="M1458,593c-4.19-0.68-19.63-3.43-31-17c-6.3-7.52-8.56-15.02-10-20c-0.89-3.07-4.32-15.81-1-30
	c1.55-6.62,4.04-11.3,5-13c2.11-3.74,4.05-5.97,5-7c1.25-1.36,2.84-2.57,6-5c0.96-0.74,2.45-1.85,4.54-1.99
	c0.18-0.01,0.3-0.02,0.46-0.01c3.09,0.15,6.28,4.99,6,9c-0.16,2.31-1.38,2.92-4,7c0,0,0,0,0,0c-3.01,4.89-4.36,8.85-5,10
	c-2.26,4.08-2.62,8.43-3,13c-0.23,2.78-0.6,7.82,1,14c0.95,3.68,2.37,9.16,7,14c5.25,5.5,11.59,6.97,16,8c9.12,2.13,16.36,0.41,18,0
	c3.47-0.87,9.75-2.46,15-8c4.49-4.73,5.89-9.9,7-14c2.09-7.71,1.37-14.01,1-17c-0.44-3.53-1.06-8.54-4-14c-3.79-7.03-6-10-6-10
	c-1.82-2.44-3.2-3.89-3-6c0.3-3.12,3.78-4.89,4-5c3.16-1.55,6.29-0.31,7,0c2.38,1.03,3.49,2.8,6,7c4.36,7.28,6.54,10.92,7,12
	c2.59,6.02,3.48,10.99,4,14c0.79,4.57,0.91,8.05,1,11c0.25,8,0.37,12-1,17c-2.21,8.05-6.73,13.38-9,16c-0.66,0.76-3.83,4.37-9,8
	c-2.28,1.6-7.14,4.95-14,7C1469.61,594.8,1461.7,593.6,1458,593z"/>
<text transform="matrix(1 0 0 1 1392.0767 644.2803)"><tspan x="0" y="0" class="st3 st4">Kolez</tspan><tspan x="103.77" y="0" class="st5 st3 st4">za</tspan></text>
</svg>
